<?xml version="1.0" standalone="no"?>
<!DOCTYPE svg PUBLIC "-//W3C//DTD SVG 20010904//EN"
 "http://www.w3.org/TR/2001/REC-SVG-20010904/DTD/svg10.dtd">
<svg version="1.0" xmlns="http://www.w3.org/2000/svg"
 width="2000.000000pt" height="2000.000000pt" viewBox="0 0 2000.000000 2000.000000"
 preserveAspectRatio="xMidYMid meet">

<g transform="translate(0.000000,2000.000000) scale(0.100000,-0.100000)"
fill="#000000" stroke="none">
<path d="M13203 17352 c-170 -51 -297 -187 -369 -393 -18 -54 -28 -109 -34
-199 -10 -138 -19 -190 -51 -277 -24 -64 -67 -143 -78 -143 -4 0 -27 10 -51
21 -37 18 -56 21 -129 17 -76 -5 -94 -2 -156 22 -197 77 -266 89 -540 100
-247 9 -330 21 -482 70 -192 62 -350 82 -638 81 -166 0 -220 3 -259 15 -60 20
-182 15 -244 -11 -23 -9 -93 -53 -154 -96 -107 -76 -136 -92 -310 -172 -161
-74 -433 -279 -619 -468 -132 -133 -186 -173 -266 -199 -128 -42 -218 -96
-318 -190 -54 -51 -67 -58 -137 -74 -79 -18 -88 -25 -88 -76 0 -21 8 -33 34
-49 39 -24 64 -19 72 15 6 23 7 23 36 8 l30 -15 -81 -56 c-73 -51 -81 -60 -81
-88 0 -33 25 -65 51 -65 8 0 23 6 34 13 69 47 75 45 23 -6 -32 -30 -58 -63
-58 -72 0 -17 43 -65 59 -65 24 0 69 24 97 52 18 16 39 28 48 26 12 -2 9 -12
-19 -47 -37 -47 -42 -68 -22 -93 29 -38 49 -30 172 62 76 56 129 90 145 90
l25 0 0 -103 c0 -104 13 -160 41 -171 29 -11 42 6 54 71 12 73 49 176 85 241
18 32 30 79 42 169 l17 125 66 60 c122 113 323 232 488 292 40 14 142 44 226
65 237 62 381 125 569 251 l106 71 73 -61 c83 -70 214 -139 308 -163 36 -9
129 -32 207 -51 78 -19 193 -55 255 -79 108 -43 113 -46 112 -73 -1 -16 -7
-128 -14 -249 -9 -174 -9 -272 0 -475 37 -748 -33 -1182 -265 -1655 -62 -127
-67 -133 -197 -266 -227 -231 -333 -386 -379 -554 -38 -141 -26 -344 31 -509
l19 -55 -121 -138 c-300 -344 -564 -688 -817 -1065 l-92 -138 -57 0 c-88 0
-230 -26 -344 -64 -174 -57 -314 -136 -458 -258 -63 -54 -165 -112 -645 -365
-313 -165 -584 -308 -602 -317 -29 -15 -37 -14 -109 4 -42 11 -138 25 -212 30
-74 6 -169 18 -211 26 -42 9 -83 17 -91 18 -9 0 -30 -29 -52 -74 -57 -112 -66
-193 -44 -390 27 -241 30 -343 15 -480 -18 -161 -16 -237 10 -334 27 -100 104
-262 165 -344 25 -34 46 -64 46 -67 0 -3 -309 -5 -687 -5 -379 0 -967 -3
-1309 -7 l-620 -6 313 -1881 c173 -1034 316 -1882 318 -1884 2 -3 269 57 592
133 669 156 1088 254 1248 291 61 14 252 58 425 99 593 139 1215 284 1500 350
157 36 321 75 365 85 44 11 217 51 385 90 168 39 341 79 385 90 44 10 247 58
450 105 204 47 474 110 600 140 127 30 464 108 750 175 725 169 1664 388 2015
470 162 38 432 101 600 140 168 39 411 96 540 126 129 30 252 59 273 65 l37
10 0 719 0 720 -657 0 -658 0 60 34 c63 34 85 62 85 109 0 68 -29 82 -191 97
-134 12 -199 29 -291 77 -140 73 -294 236 -374 395 l-35 70 16 105 c52 332
151 561 378 881 163 229 308 489 420 752 32 74 73 158 92 186 60 92 123 217
151 304 24 74 28 101 28 205 0 149 -20 208 -95 284 -63 63 -969 743 -1069 803
-111 65 -299 150 -440 199 -69 23 -127 44 -129 45 -2 2 5 54 15 116 13 82 18
178 19 348 l2 235 117 210 c118 213 259 493 356 708 l53 118 102 -199 c132
-257 197 -365 260 -429 52 -52 155 -111 230 -132 38 -11 42 -9 100 31 158 109
296 247 380 378 23 36 117 214 209 395 117 230 178 341 203 365 20 19 44 52
53 73 9 20 45 62 78 93 48 43 71 74 101 137 23 48 65 111 100 152 62 69 86
120 79 165 -6 45 -67 39 -117 -12 -23 -24 -34 -29 -43 -20 -8 8 3 27 45 77 61
71 63 76 47 106 -16 30 -58 23 -107 -17 -36 -30 -46 -34 -59 -23 -13 11 -11
16 16 44 36 37 38 68 8 89 -32 23 -43 20 -87 -19 -21 -19 -41 -35 -45 -35 -3
0 -6 16 -6 35 0 26 -6 39 -25 51 -38 25 -71 11 -96 -39 -31 -61 -92 -148 -127
-180 l-30 -29 -6 24 c-22 80 -34 105 -73 148 -65 73 -133 91 -133 37 0 -13 14
-51 31 -84 32 -62 34 -78 28 -228 -1 -46 6 -84 35 -168 20 -60 36 -113 36
-118 0 -19 -82 -174 -128 -243 -88 -133 -144 -190 -224 -228 -40 -19 -98 -56
-128 -81 -30 -25 -55 -45 -56 -44 -1 1 -14 49 -28 107 -33 129 -93 280 -150
380 l-43 75 -5 130 c-9 229 -65 352 -242 533 l-110 113 16 27 c9 14 31 34 50
44 54 30 96 23 201 -31 151 -79 205 -79 228 -1 7 23 28 58 47 78 18 20 40 50
49 66 14 27 13 30 -13 57 l-27 28 36 -6 c33 -5 38 -2 64 34 24 34 36 42 83 51
31 7 60 16 66 22 7 7 7 36 0 88 -18 148 14 318 93 481 38 82 47 138 31 210
-41 186 -268 382 -535 462 -101 30 -279 35 -362 11z m-1242 -5877 c228 -91
610 -190 949 -246 234 -39 320 -71 437 -166 l42 -34 -58 -79 c-182 -245 -294
-540 -317 -835 -7 -101 -55 -246 -211 -650 -92 -236 -268 -654 -281 -667 -5
-5 -30 -14 -57 -21 -46 -11 -50 -15 -81 -77 -17 -36 -42 -110 -54 -165 -23
-104 -55 -185 -90 -235 l-20 -28 37 -31 c59 -48 184 -110 270 -132 56 -14 137
-22 288 -29 213 -10 394 -27 430 -40 11 -4 -1018 -10 -2285 -14 -1268 -3
-2620 -9 -3005 -12 l-700 -7 3 143 c2 155 17 230 59 314 55 108 209 317 331
447 65 69 72 81 72 118 0 38 4 44 68 96 100 84 302 216 432 284 144 75 253
119 400 160 242 68 534 170 840 294 171 69 188 74 345 92 252 30 366 79 515
219 36 33 137 116 225 183 380 289 891 753 1180 1072 50 55 91 100 93 100 2 1
66 -24 143 -54z m2622 -3679 c208 -40 380 -153 443 -291 21 -46 24 -66 22
-142 l-3 -88 -190 -11 c-104 -7 -193 -10 -197 -7 -5 2 -8 33 -8 69 0 74 -14
108 -64 151 -47 42 -98 58 -181 57 -108 -1 -205 -60 -237 -143 -6 -17 -5 -97
3 -236 17 -290 -6 -454 -72 -516 -23 -21 -26 -28 -14 -33 21 -8 201 25 375 68
168 42 200 53 200 72 0 8 -1 14 -2 14 -2 0 -55 -7 -118 -14 -63 -8 -116 -14
-117 -13 -1 1 -5 64 -9 139 l-7 137 24 5 c28 6 612 56 615 53 1 -1 7 -48 14
-104 13 -118 2 -161 -48 -187 -16 -8 -126 -36 -243 -61 -118 -26 -342 -78
-499 -116 -491 -121 -622 -142 -637 -103 -6 17 27 57 69 82 28 16 49 69 68
171 13 71 13 250 -1 443 -18 235 4 311 121 428 129 130 283 188 507 189 61 1
145 -5 186 -13z m-2116 -24 c6 -4 104 -162 218 -352 227 -379 407 -672 410
-668 2 3 -1 43 -44 623 -16 215 -27 393 -24 398 2 4 87 7 188 7 183 0 185 0
189 -22 2 -13 14 -140 27 -283 25 -293 28 -513 10 -660 -31 -249 -70 -312
-277 -441 -61 -38 -95 -50 -200 -75 -70 -16 -134 -29 -142 -29 -11 0 -12 10
-7 48 9 64 -15 162 -61 254 -37 74 -162 288 -169 288 -2 0 -1 -60 2 -132 6
-152 -4 -219 -47 -305 -35 -70 -119 -172 -189 -232 -50 -41 -60 -45 -219 -82
-91 -21 -167 -37 -168 -36 -2 1 22 34 52 72 30 39 74 111 99 160 127 257 143
514 71 1095 -20 157 -36 304 -36 327 l0 42 128 4 c70 1 138 4 152 5 14 1 30
-2 37 -6z m-1500 -10 c13 -8 83 -573 104 -842 23 -286 -2 -595 -66 -813 -35
-121 -84 -246 -104 -266 -9 -9 -64 -27 -121 -40 -58 -12 -117 -26 -131 -31
-25 -8 -26 -7 -76 144 -64 188 -150 381 -260 579 -94 170 -107 188 -96 137 5
-19 8 -143 8 -275 0 -187 -4 -261 -18 -335 -22 -119 -75 -341 -85 -358 -8 -12
-342 -95 -350 -87 -3 2 3 37 12 77 44 197 58 340 63 628 6 339 -5 485 -78
1069 -27 217 -45 399 -41 403 5 5 79 7 166 6 l157 -3 96 -175 c52 -96 199
-362 326 -590 127 -228 237 -428 245 -443 8 -16 16 -26 18 -24 2 2 -27 275
-66 605 -38 331 -70 608 -70 616 0 11 16 16 63 19 126 7 292 6 304 -1z m797
-14 c5 -24 58 -623 77 -868 6 -80 9 -210 6 -290 -6 -163 -20 -225 -85 -350
-34 -66 -148 -250 -155 -250 -1 0 -80 -18 -176 -40 -96 -23 -175 -39 -178 -37
-2 2 28 67 66 143 102 205 141 349 141 524 0 89 -22 367 -65 818 -19 200 -35
365 -35 368 0 2 90 4 200 4 199 0 200 0 204 -22z m-2429 1 c12 -19 102 -728
131 -1034 22 -223 25 -737 6 -900 -17 -152 -43 -308 -52 -318 -6 -7 -250 -67
-271 -67 -4 0 -17 26 -30 58 -62 156 -150 356 -235 530 -103 213 -254 496
-261 489 -2 -3 4 -69 14 -148 15 -119 18 -218 18 -564 0 -231 -4 -433 -8 -448
-5 -17 -18 -32 -34 -38 -31 -12 -287 -69 -309 -69 -13 0 -14 22 -8 193 16 478
-38 1079 -200 2202 -7 50 -11 96 -8 103 3 10 42 12 165 10 l160 -3 89 -170
c206 -393 358 -682 458 -870 59 -110 124 -233 145 -273 20 -40 39 -71 41 -69
2 1 -8 81 -21 177 -13 96 -54 391 -90 655 -36 264 -68 497 -71 517 l-6 37 84
4 c198 8 287 7 293 -4z m-1610 -11 c4 -13 102 -656 149 -983 60 -414 106 -827
106 -953 0 -265 -167 -568 -396 -721 -88 -60 -157 -86 -255 -100 -143 -20
-263 24 -380 139 -142 140 -195 278 -234 610 -37 317 -92 705 -195 1376 -50
320 -90 593 -90 608 l0 26 197 -2 198 -3 7 -45 c5 -25 46 -281 93 -570 120
-748 155 -1001 185 -1350 14 -157 30 -215 74 -266 68 -80 153 -95 247 -46 93
49 159 165 159 281 0 160 -69 693 -205 1590 -30 201 -55 375 -55 387 0 21 5
23 68 27 181 9 323 7 327 -5z m-2130 -23 c273 -71 527 -342 619 -658 39 -135
49 -203 49 -337 0 -165 -39 -328 -102 -436 l-18 -31 49 -63 c87 -113 158 -257
191 -390 22 -88 109 -962 98 -973 -10 -10 -351 -91 -357 -85 -2 2 -28 211 -59
465 -30 253 -61 479 -69 501 -47 132 -141 233 -246 262 -38 11 -290 -8 -290
-21 0 -5 18 -124 40 -266 74 -484 153 -1044 147 -1049 -9 -9 -348 -84 -357
-79 -4 2 -10 28 -14 57 -4 29 -54 339 -112 688 -264 1599 -394 2395 -394 2412
0 17 19 18 383 18 313 0 394 -3 442 -15z"/>
<path d="M5283 7193 c-13 -2 -23 -10 -23 -18 0 -20 108 -677 112 -681 2 -2 76
3 164 9 181 15 212 26 265 100 123 170 42 474 -153 573 -44 22 -57 24 -195 23
-81 -1 -158 -4 -170 -6z"/>
<path d="M7020 16674 c-680 -21 -1191 -52 -1510 -91 l-55 -7 45 -8 c77 -13
474 -47 745 -62 860 -50 1976 -46 2815 10 250 16 621 51 629 59 2 3 -2 5 -10
5 -8 0 -100 9 -204 19 -216 23 -582 47 -925 61 -235 10 -1332 20 -1530 14z"/>
<path d="M6850 16000 c-341 -14 -801 -55 -980 -88 l-45 -8 65 -12 c511 -91
1568 -118 2355 -62 180 13 471 45 563 62 l67 12 -45 8 c-141 26 -475 59 -790
78 -233 14 -935 20 -1190 10z"/>
<path d="M5785 15329 c-415 -12 -779 -37 -1115 -76 -167 -19 -162 -23 55 -47
478 -54 870 -71 1625 -71 748 0 1115 16 1620 71 213 23 218 28 50 47 -611 71
-1439 100 -2235 76z"/>
<path d="M7560 14664 c-725 -11 -1544 -39 -2020 -69 -406 -26 -430 -28 -426
-32 22 -22 1149 -75 2011 -94 584 -13 2216 -7 2720 11 650 22 1398 61 1505 79
40 6 34 8 -55 14 -538 37 -1054 61 -1665 77 -393 10 -1718 19 -2070 14z"/>
<path d="M8155 13990 c-732 -15 -1820 -77 -1759 -101 39 -15 637 -56 1204 -81
391 -18 2082 -18 2480 0 542 24 1146 65 1200 81 36 11 -437 49 -875 71 -626
30 -1589 43 -2250 30z"/>
<path d="M6925 13320 c-721 -11 -1405 -35 -1885 -65 -129 -9 -282 -18 -340
-22 -65 -4 -97 -9 -85 -14 38 -15 810 -56 1525 -81 500 -18 2722 -18 3225 0
714 25 1491 66 1529 81 29 11 -594 50 -1149 71 -776 29 -2003 42 -2820 30z"/>
<path d="M7605 12643 c-357 -11 -778 -38 -1238 -80 -37 -3 -64 -9 -60 -13 22
-21 745 -72 1287 -91 382 -13 1630 -7 1941 11 479 26 985 67 985 80 0 20 -698
70 -1240 90 -232 9 -1427 11 -1675 3z"/>
<path d="M6825 11973 c-656 -16 -1675 -73 -1675 -93 0 -19 886 -71 1575 -91
457 -13 2108 -7 2485 10 572 26 1210 69 1210 81 0 19 -900 70 -1575 90 -292 9
-1724 11 -2020 3z"/>
<path d="M7580 11299 c-317 -15 -870 -67 -920 -86 -19 -8 42 -18 260 -42 746
-85 1948 -86 2695 -1 275 31 286 33 278 40 -23 20 -604 73 -973 90 -263 12
-1073 11 -1340 -1z"/>
<path d="M6825 10633 c-423 -20 -914 -66 -979 -92 -42 -16 468 -71 859 -92
282 -15 1010 -15 1275 0 328 19 603 44 833 77 26 4 44 10 40 14 -22 21 -559
73 -923 90 -190 9 -944 11 -1105 3z"/>
<path d="M5346 9819 c-218 -12 -588 -62 -658 -88 -19 -7 -11 -11 52 -25 497
-108 1358 -113 1889 -10 68 13 126 25 128 28 2 2 -19 9 -48 15 -351 76 -889
107 -1363 80z"/>
<path d="M5775 9010 c-77 -4 -183 -13 -235 -19 -101 -13 -316 -56 -353 -70
l-22 -9 26 -10 c40 -16 202 -49 334 -69 151 -22 694 -26 845 -5 119 16 329 58
366 73 l29 12 -45 14 c-209 64 -613 99 -945 83z"/>
<path d="M14380 6284 c-2456 -612 -9235 -2305 -9238 -2308 -2 -2 31 -138 72
-302 42 -165 117 -463 167 -664 51 -201 95 -369 100 -374 4 -4 379 -1 851 8
463 9 1678 32 2698 51 6464 121 6511 122 6514 127 2 1 -30 397 -70 878 -40
481 -107 1289 -149 1795 -41 506 -79 938 -83 961 l-7 40 -855 -212z m176 -374
c168 -43 324 -140 419 -262 232 -297 195 -678 -94 -973 l-61 -62 55 -43 c287
-221 398 -562 290 -887 -111 -333 -455 -584 -865 -632 -96 -11 -1138 -36
-1147 -28 -11 11 -82 784 -108 1167 -28 433 -37 748 -30 1075 3 176 10 336 14
355 l7 34 194 48 c107 27 260 64 340 83 80 19 237 57 349 85 112 27 236 54
275 59 99 14 269 5 362 -19z m-2090 -489 c-43 -573 -35 -1027 31 -1620 12
-115 13 -158 4 -212 -54 -330 -373 -573 -825 -629 -135 -17 -381 -8 -511 20
-280 59 -510 174 -656 326 -118 125 -139 179 -170 442 -29 245 -32 564 -6 731
26 164 113 486 146 540 9 14 601 164 610 155 3 -2 -5 -46 -17 -97 -106 -441
-123 -805 -63 -1312 22 -184 27 -199 77 -255 92 -102 259 -152 428 -130 137
19 241 78 294 169 32 55 34 113 9 341 -28 253 -39 574 -28 806 14 284 56 643
78 665 11 11 543 146 582 148 l24 1 -7 -89z m-3376 -736 c0 -2 -43 -68 -96
-146 -161 -237 -190 -323 -188 -554 2 -132 6 -170 37 -315 20 -91 46 -213 59
-272 l23 -108 30 1 c16 0 271 13 565 28 294 15 540 26 545 24 15 -5 66 -376
53 -384 -5 -3 -179 -9 -386 -13 -208 -4 -543 -11 -747 -16 -203 -5 -436 -10
-516 -10 l-145 0 -72 363 c-94 474 -112 621 -92 769 18 140 60 210 251 416
l68 74 293 73 c298 74 318 78 318 70z m-1457 -401 c49 -7 87 -34 87 -62 0 -9
-29 -44 -65 -78 -58 -55 -71 -62 -117 -68 -29 -3 -172 -22 -317 -41 -146 -19
-266 -33 -268 -31 -2 2 17 17 42 32 49 32 56 49 24 59 -76 24 -701 -113 -831
-183 -77 -40 -102 -97 -87 -192 9 -57 111 -384 137 -437 38 -81 190 -133 386
-133 178 0 290 34 366 110 46 46 51 72 33 157 -15 74 -11 82 42 83 17 0 138 9
270 20 291 24 331 25 338 6 3 -8 11 -50 18 -95 10 -63 10 -92 0 -135 -47 -212
-347 -378 -771 -427 -154 -17 -482 -7 -640 21 -378 66 -662 206 -712 350 -9
25 -42 119 -74 210 -49 138 -59 176 -59 231 0 113 14 121 332 195 221 50 370
88 1108 278 420 109 639 146 758 130z"/>
<path d="M13950 5406 c-63 -13 -158 -31 -211 -41 l-96 -17 -5 -191 c-5 -179 2
-401 12 -410 7 -6 450 50 501 63 113 30 241 130 289 226 37 75 39 159 6 229
-73 147 -237 194 -496 141z"/>
<path d="M13846 4264 c-77 -8 -142 -16 -144 -19 -5 -5 44 -603 55 -677 7 -44
-16 -42 229 -28 99 6 204 18 234 26 82 23 162 70 219 127 71 71 95 124 99 219
4 65 0 85 -20 130 -14 29 -37 67 -52 85 -41 49 -132 104 -213 130 -86 27 -184
29 -407 7z"/>
</g>
</svg>
